PathFileType	4	(X/Y/Z)	C:/Users/beibeiliu/ov580/test_trc/User2\sequence.34_training_dense_left.trc
DataRate	CameraRate	NumFrames	NumMarkers	Units	OrigDataRate	OrigDataStartFrame	OrigNumFrames
120	120	21	19	mm	120	1	326
Frame#	Time	ThumbCMC			ThumbMCP			ThumbIP			ThumbTip			IndexMCP			IndexPIP			IndexTip			MiddleMCP			MiddlePIP			MiddleTip			RingMCP			RingPIP			RingTip			PinkyMCP			PinkyPIP			PinkyTip			BackHand1			BackHand2			BackHand3	
		X0	Y0	Z0	X1	Y1	Z1	X2	Y2	Z2	X3	Y3	Z3	X4	Y4	Z4	X5	Y5	Z5	X6	Y6	Z6	X7	Y7	Z7	X8	Y8	Z8	X9	Y9	Z9	X10	Y10	Z10	X11	Y11	Z11	X12	Y12	Z12	X13	Y13	Z13	X14	Y14	Z14	X15	Y15	Z15	X16	Y16	Z16	X17	Y17	Z17	X18	Y18	Z18	
0	0	-140.315	-56.9941	87.6382	-120.924	-66.17	67.0976	-99.2126	-74.3495	40.0848	-86.5514	-85.377	17.9645	-158.616	-65.0804	5.44867	-151.506	-70.3371	-20.4839	-147.227	-75.8198	-53.0076	-185.311	-64.5975	-2.85214	-188.385	-70.8998	-34.1041	-192.784	-80.221	-64.876	-210.132	-69.9807	3.74257	-216.515	-74.6121	-18.0451	-222.626	-82.0715	-45.9981	-234.891	-78.1865	26.6896	-244.228	-83.7131	7.92164	-252.878	-82.495	-16.6108	-206.761	-50.9826	54.6138	-206.568	-36.1083	89.5283	-172.487	-40.3009	67.9644	
1	0.00833333	-142.741	-58.3725	84.6859	-120.95	-65.2863	64.9387	-104.854	-75.8415	38.902	-87.957	-86.1857	17.6785	-160.114	-64.9452	2.81218	-154.088	-69.7435	-25.931	-150.42	-76.1238	-55.0932	-185.622	-64.7955	-6.37879	-188.088	-70.2211	-32.6236	-193.522	-79.5854	-65.987	-215.303	-69.411	5.44708	-216.603	-75.0038	-19.471	-223.858	-81.8761	-52.0831	-232.11	-78.2168	29.1247	-247.531	-82.4437	2.49805	-255.919	-80.4817	-15.3003	-209.939	-51.7493	57.8769	-206.863	-36.4606	85.8179	-172.807	-41.8804	65.6686	
2	0.0166667	-143	-59.0994	85.8812	-122.902	-66.4533	66.9695	-101.165	-76.4807	35.5654	-90.0313	-86.7116	21.2284	-155.106	-65.7378	-0.856072	-154.729	-70.4566	-24.4816	-147.228	-75.7073	-51.4913	-188.178	-64.6559	-3.7722	-188.557	-71.4823	-34.4103	-190.402	-79.3394	-64.9651	-210.28	-69.6532	6.04781	-218.063	-76.7728	-24.2973	-224.931	-83.0078	-51.2862	-234.222	-77.6085	27.6423	-247.223	-83.3514	4.25116	-255.16	-83.0996	-16.7392	-210.924	-51.6593	56.5347	-206.403	-38.4948	85.3288	-174.578	-41.8507	67.806	
3	0.025	-140.587	-57.8803	80.8419	-123.772	-66.2777	63.8287	-103.028	-75.9521	37.6164	-89.0457	-85.9508	22.7604	-158.624	-65.3026	-0.743117	-150.871	-69.3346	-27.793	-153.162	-76.03	-51.102	-186.542	-63.934	-2.66139	-189.594	-71.0927	-36.7193	-193.718	-79.2045	-65.7849	-211.241	-69.2371	3.24217	-219.689	-75.8538	-22.9516	-222.852	-81.3908	-47.0076	-230.304	-77.9903	27.6887	-243.819	-81.7252	3.19419	-256.28	-80.2672	-15.977	-209.958	-52.8736	53.7859	-211.007	-38.195	84.2519	-173.981	-41.4662	64.5066	
4	0.0333333	-144.804	-58.4879	84.5953	-122.301	-65.7232	62.0334	-100.317	-74.852	38.8814	-86.3661	-85.2571	20.8622	-156.378	-63.7311	2.58499	-153.063	-68.186	-23.1684	-148.689	-74.1537	-50.7495	-184.624	-62.9803	-8.53526	-186.929	-71.3596	-39.0326	-191.157	-77.5629	-64.6667	-215.945	-69.8779	4.91372	-218.973	-74.8592	-24.6966	-225.888	-82.2229	-51.2079	-236.493	-78.041	26.8844	-242.642	-82.1897	3.9748	-256.94	-79.9293	-16.2997	-210.968	-51.1051	54.0306	-205.566	-37.6049	82.4231	-174.85	-42.3816	64.7173	
5	0.0416667	-143.968	-58.5756	80.1901	-123.061	-65.3579	62.5914	-102.571	-75.3675	34.9098	-85.693	-85.3433	19.6263	-155.573	-63.3253	3.54218	-155.453	-68.9001	-27.7141	-149.357	-74.0425	-51.1511	-188.53	-63.456	-7.43464	-187.655	-69.4131	-36.7271	-194.246	-78.032	-65.9725	-216.438	-68.8996	4.87402	-222.138	-74.3499	-24.0424	-227.063	-80.9319	-48.2257	-234.061	-76.5228	26.417	-242.454	-81.7442	5.70775	-257.387	-82.0161	-15.9338	-207.206	-50.0371	57.0552	-207.562	-37.7698	84.6104	-171.299	-41.4688	65.6149	
6	0.05	-141.62	-57.4308	80.3828	-120.522	-65.1008	61.8912	-103.381	-76.9156	39.651	-88.5273	-86.1564	20.7854	-159.298	-63.8986	-1.82347	-152.317	-68.3293	-23.4881	-151.734	-74.3375	-51.7143	-189.623	-63.2998	-7.929	-187.695	-68.9412	-34.5375	-192.655	-77.2402	-68.1541	-211.467	-68.4683	6.06797	-220.359	-74.4068	-21.3644	-224.168	-80.2141	-52.6785	-236.476	-77.2035	26.9055	-247.338	-82.0363	1.66105	-258.124	-81.4403	-17.2813	-206.096	-51.7549	57.7203	-209.053	-37.1075	86.1951	-174.711	-39.5007	66.5256	
7	0.0583333	-142.252	-56.4502	85.0282	-121.548	-65.4872	65.1474	-100.107	-75.2205	36.027	-85.6015	-85.5902	20.9961	-158.574	-63.3894	-0.527337	-151.645	-69.2801	-28.1427	-152.883	-74.3604	-51.9686	-188.091	-63.8299	-7.74078	-189.15	-70.1376	-35.2581	-189.73	-78.8421	-70.5099	-211.863	-68.7345	4.60517	-223.087	-75.4649	-21.3451	-226.372	-81.4386	-48.4252	-237.318	-76.5923	24.4403	-245.296	-82.4051	4.69149	-259.107	-82.1648	-20.0239	-211.856	-51.6673	57.8876	-209.319	-37.7335	84.2541	-172.17	-38.9141	65.1212	
8	0.0666667	-142.677	-57.5909	82.5081	-122.416	-65.7003	62.5437	-104.343	-75.9586	37.7928	-88.3575	-86.0581	16.9419	-158.832	-62.5294	1.95152	-153.223	-67.8933	-28.9722	-147.608	-74.5233	-56.1224	-187.638	-62.3022	-4.38445	-192.193	-69.9241	-38.6441	-192.704	-77.9466	-67.7832	-214.465	-67.9938	3.36714	-222.763	-74.0442	-20.9912	-224.103	-80.8404	-51.617	-236.272	-76.1989	28.9139	-245.106	-81.4724	5.77503	-259.276	-80.7599	-17.4329	-209.349	-51.9016	56.2727	-209.797	-37.2843	87.55	-173.932	-40.759	66.9919	
9	0.075	-144.793	-57.4646	84.1132	-118.565	-64.2696	63.4615	-99.5255	-73.7289	39.8596	-90.093	-86.7523	20.9463	-157.632	-62.8524	0.764229	-156.096	-67.2077	-24.5239	-151.807	-73.1367	-53.754	-186.269	-61.9625	-6.86964	-187.944	-68.4676	-36.7651	-191.938	-77.5063	-66.3851	-211.543	-67.1074	1.63983	-223.433	-72.8426	-19.4107	-225.592	-80.959	-49.5619	-231.742	-76.0984	27.9107	-247.314	-81.2889	3.64566	-257.215	-81.1233	-17.4156	-212.05	-50.9679	56.8513	-209.583	-37.1942	83.2842	-172.879	-39.8864	67.4339	
10	0.0833333	-142.534	-56.4804	81.9763	-120.75	-64.1896	64.0129	-100.872	-74.6052	37.9966	-86.3275	-84.9047	18.9755	-159.463	-63.2108	-0.512513	-152.76	-67.2779	-25.3383	-151.755	-73.3701	-55.8708	-187.091	-61.4648	-8.49768	-188.213	-68.1954	-35.7852	-195.102	-76.9342	-66.2587	-216.859	-67.3462	4.6637	-222.245	-72.0456	-20.2861	-224.53	-79.3266	-51.6139	-231.652	-75.462	27.1643	-245.998	-79.5024	3.41154	-256.489	-80.3046	-17.5046	-211.389	-50.3127	56.9962	-208.487	-38.0788	82.5337	-174.615	-39.1098	66.1628	
11	0.0916667	-145.349	-57.9049	85.2981	-118.028	-63.4561	66.2007	-98.9094	-73.3742	39.9091	-89.1603	-85.1698	21.2818	-157.406	-62.1444	-0.309087	-152.121	-66.4661	-27.2904	-151.561	-71.4627	-51.7853	-186.604	-60.7121	-5.14947	-190.296	-67.1099	-37.4045	-193.346	-75.9667	-69.6944	-214.727	-66.2486	6.58493	-218.638	-71.3584	-20.0253	-225.868	-77.9367	-47.5453	-232.082	-73.8148	22.1337	-243.131	-79.277	4.7884	-259.074	-78.4875	-17.8079	-210.829	-48.4833	54.9988	-210.265	-35.8265	84.6574	-171.1	-40.9734	65.389	
12	0.1	-145.367	-56.4463	81.1296	-123.015	-65.0316	64.9011	-98.2264	-73.6823	40.2419	-85.1717	-83.3399	21.9919	-155.975	-60.5156	-0.921605	-149.668	-64.0765	-25.7567	-149.482	-68.6177	-50.3063	-184.214	-59.715	-7.0127	-189.022	-66.3926	-38.6432	-193.417	-73.2496	-65.8434	-215.906	-64.9547	5.06158	-217.373	-70.5718	-23.4812	-224.274	-77.4	-49.422	-233.768	-73.5934	27.3585	-243.983	-78.4475	5.84356	-256.695	-76.1542	-19.4303	-206.12	-49.8131	53.9525	-207.081	-35.058	86.9538	-172.81	-39.7555	68.0516	
13	0.108333	-142.882	-56.7487	85.4619	-118.103	-63.5034	64.2631	-98.2892	-73.1945	38.0336	-85.0452	-84.58	20.6264	-159.778	-59.7143	2.44463	-152.427	-62.0192	-23.0168	-149.11	-66.8268	-54.1711	-185.472	-58.522	-8.52262	-186.557	-65.2425	-38.0302	-190.141	-71.868	-65.3747	-212.83	-64.4587	2.49455	-218.078	-69.8918	-19.4933	-222.246	-76.0366	-48.0643	-231.39	-71.7765	22.0816	-245.816	-77.3634	0.651379	-253.982	-75.4278	-20.0806	-206.61	-49.6279	54.3464	-206.596	-33.8046	84.2522	-172.201	-36.5581	69.4568	
14	0.116667	-140.946	-54.9546	84.397	-118.933	-62.9965	67.3142	-97.8296	-73.4622	40.5506	-86.8837	-84.5538	21.9125	-159.196	-58.6716	-0.601885	-153.593	-61.5386	-24.9413	-149.218	-65.9044	-53.4672	-183.848	-57.7186	-5.13842	-185.349	-63.7655	-36.4924	-191.665	-71.3456	-70.4962	-211.885	-63.2282	3.4114	-218.348	-68.2891	-21.8598	-220.92	-74.4274	-47.7649	-235.17	-70.883	23.6289	-244.25	-75.2038	5.1618	-256.667	-72.6849	-20.8701	-210.146	-46.8762	57.2072	-205.325	-35.7998	84.5871	-173.129	-37.4163	67.0922	
15	0.125	-141.236	-55.1374	84.0872	-119.905	-63.3459	64.0893	-98.2777	-72.8371	35.8204	-85.5507	-84.6743	23.4172	-157.17	-57.512	1.30744	-149.867	-60.214	-24.8434	-150.889	-63.2124	-56.1577	-187.268	-55.9524	-4.00373	-185.134	-62.0432	-39.3041	-190.316	-68.46	-67.0699	-213.284	-61.6019	5.64738	-217.131	-67.1061	-20.2147	-223.557	-73.1816	-48.3969	-235.382	-70.1146	25.3965	-242.863	-74.5031	3.27403	-253.309	-72.2128	-20.5679	-207.756	-47.8167	54.8423	-205.816	-34.2321	85.521	-171.189	-35.655	64.3393	
16	0.133333	-141.305	-53.5384	85.6307	-118.491	-62.4414	61.9229	-100.346	-72.8415	38.9195	-86.1693	-83.3987	18.7396	-158.856	-56.7099	3.36848	-154.001	-60.5492	-27.4303	-150.975	-62.3296	-52.9559	-189.174	-56.1948	-2.43138	-190.182	-61.1855	-36.802	-192.691	-67.9755	-66.1508	-210.758	-61.661	3.98202	-220.398	-65.8939	-22.0955	-224.881	-72.1237	-52.2686	-234.492	-70.2433	24.2312	-243.794	-74.054	4.34562	-253.808	-73.2357	-18.1593	-208.814	-45.6572	59.2371	-205.728	-32.5772	83.711	-173.762	-35.4067	64.3779	
17	0.141667	-140.303	-52.8838	83.6539	-120.909	-62.5376	66.6578	-100.703	-72.9086	40.5617	-85.3964	-83.142	21.3578	-156.104	-55.4841	4.20841	-154.161	-59.2723	-27.341	-150.735	-62.0987	-52.415	-187.924	-54.9506	-7.13785	-187.692	-60.4655	-35.9938	-193.797	-68.6429	-70.3207	-214.276	-60.3655	3.95556	-220.309	-64.5077	-19.5683	-220.059	-71.7971	-50.9912	-232.012	-69.0369	26.3708	-246.256	-72.6625	2.43764	-253.848	-72.2087	-16.1391	-207.43	-45.0931	56.0384	-208.518	-33.0203	83.8051	-175.549	-34.9708	66.4727	
18	0.15	-140.133	-52.5956	81.7542	-122.638	-62.4269	66.0824	-99.2937	-73.2452	36.314	-90.0926	-84.3695	19.9199	-158.175	-55.781	4.10323	-152.817	-57.4832	-25.5769	-153.332	-61.6852	-53.8247	-187.4	-53.6048	-4.30127	-191.83	-60.2629	-39.8861	-195.024	-67.3041	-65.4884	-213.837	-59.9421	5.77959	-222.44	-64.821	-21.9588	-224.124	-71.0461	-52.9179	-233.372	-69.3884	26.5097	-244.251	-72.2626	0.964359	-252.373	-70.7144	-17.1844	-206.726	-45.1723	57.6925	-208.758	-30.9226	86.2095	-176.26	-36.6028	67.7923	
19	0.158333	-142.958	-53.9608	82.8128	-119.05	-61.8195	65.1214	-100.903	-72.8602	38.8157	-87.1581	-83.9877	20.4409	-160.419	-54.1564	-0.902774	-154.634	-57.074	-23.5229	-153.143	-62.0046	-53.8833	-188.894	-53.3875	-7.74535	-187.673	-59.6638	-37.5888	-194.942	-67.768	-66.4032	-216.702	-60.5554	2.07474	-219.885	-65.1532	-19.9153	-223.809	-70.8348	-52.0186	-234.728	-68.938	28.3223	-245.926	-72.0405	5.41595	-256.492	-70.6892	-16.4274	-208.443	-43.7342	54.6934	-207.074	-33.4319	88.5706	-171.096	-34.8491	68.1181	
20	0.166667	-144.725	-53.8965	85.5168	-119.425	-62.2294	62.7425	-100.001	-72.9326	36.4086	-87.1127	-85.1924	18.1465	-160.623	-54.4569	3.98429	-156.146	-57.3344	-27.4631	-153.1	-61.4296	-55.853	-191.199	-54.0224	-4.26374	-188.207	-58.964	-36.2467	-194.617	-67.3543	-68.2302	-215.893	-60.3118	5.29849	-222.983	-64.2318	-24.2951	-223.075	-70.3103	-50.2257	-234.638	-69.0417	27.1887	-246.333	-72.3483	4.823	-254.149	-68.8991	-17.0132	-208.768	-45.9589	56.7022	-207.449	-33.9718	84.937	-175.745	-35.4241	65.0185	
